<svg width="1799" height="428" viewBox="0 0 1799 428" fill="none" xmlns="http://www.w3.org/2000/svg">
<path d="M21.885 335V83.199H75.1223V187.091H183.195V83.199H236.309V335H183.195V230.985H75.1223V335H21.885ZM435.734 83.199H488.971V246.722C488.971 265.083 484.586 281.148 475.815 294.918C467.127 308.689 454.955 319.426 439.299 327.131C423.644 334.754 405.406 338.566 384.587 338.566C363.685 338.566 345.407 334.754 329.751 327.131C314.096 319.426 301.924 308.689 293.235 294.918C284.547 281.148 280.202 265.083 280.202 246.722V83.199H333.44V242.173C333.44 251.763 335.53 260.288 339.71 267.746C343.972 275.205 349.956 281.066 357.661 285.328C365.366 289.591 374.341 291.722 384.587 291.722C394.914 291.722 403.89 289.591 411.513 285.328C419.218 281.066 425.16 275.205 429.34 267.746C433.603 260.288 435.734 251.763 435.734 242.173V83.199ZM669.369 155.616C668.385 145.698 664.164 137.994 656.705 132.502C649.246 127.01 639.123 124.264 626.337 124.264C617.648 124.264 610.312 125.494 604.329 127.953C598.345 130.33 593.755 133.649 590.558 137.912C587.444 142.174 585.886 147.01 585.886 152.42C585.722 156.928 586.665 160.862 588.714 164.223C590.845 167.583 593.755 170.493 597.443 172.952C601.132 175.329 605.394 177.419 610.23 179.223C615.066 180.944 620.23 182.419 625.722 183.649L648.345 189.059C659.328 191.518 669.41 194.796 678.59 198.895C687.77 202.993 695.721 208.034 702.442 214.017C709.164 220.001 714.369 227.05 718.057 235.165C721.828 243.28 723.754 252.583 723.836 263.074C723.754 278.484 719.819 291.845 712.033 303.156C704.328 314.385 693.18 323.115 678.59 329.344C664.082 335.492 646.582 338.566 626.091 338.566C605.763 338.566 588.058 335.451 572.976 329.221C557.977 322.992 546.255 313.771 537.813 301.558C529.452 289.263 525.067 274.058 524.657 255.943H576.173C576.747 264.386 579.165 271.435 583.427 277.091C587.771 282.664 593.55 286.886 600.763 289.754C608.058 292.541 616.296 293.935 625.476 293.935C634.492 293.935 642.32 292.623 648.959 290C655.681 287.377 660.885 283.73 664.574 279.058C668.262 274.386 670.107 269.017 670.107 262.951C670.107 257.296 668.426 252.542 665.066 248.689C661.787 244.837 656.951 241.558 650.558 238.853C644.246 236.148 636.5 233.689 627.32 231.476L599.902 224.591C578.673 219.427 561.911 211.354 549.616 200.37C537.321 189.387 531.214 174.592 531.296 155.985C531.214 140.739 535.272 127.42 543.468 116.027C551.747 104.633 563.099 95.7398 577.526 89.3465C591.952 82.9531 608.345 79.7564 626.705 79.7564C645.394 79.7564 661.705 82.9531 675.639 89.3465C689.656 95.7398 700.557 104.633 708.344 116.027C716.131 127.42 720.147 140.616 720.393 155.616H669.369ZM759.645 335V83.199H812.882V187.091H920.955V83.199H974.069V335H920.955V230.985H812.882V335H759.645Z" fill="white"/>
<path d="M21.885 335V83.199H75.1223V187.091H183.195V83.199H236.309V335H183.195V230.985H75.1223V335H21.885ZM435.734 83.199H488.971V246.722C488.971 265.083 484.586 281.148 475.815 294.918C467.127 308.689 454.955 319.426 439.299 327.131C423.644 334.754 405.406 338.566 384.587 338.566C363.685 338.566 345.407 334.754 329.751 327.131C314.096 319.426 301.924 308.689 293.235 294.918C284.547 281.148 280.202 265.083 280.202 246.722V83.199H333.44V242.173C333.44 251.763 335.53 260.288 339.71 267.746C343.972 275.205 349.956 281.066 357.661 285.328C365.366 289.591 374.341 291.722 384.587 291.722C394.914 291.722 403.89 289.591 411.513 285.328C419.218 281.066 425.16 275.205 429.34 267.746C433.603 260.288 435.734 251.763 435.734 242.173V83.199ZM669.369 155.616C668.385 145.698 664.164 137.994 656.705 132.502C649.246 127.01 639.123 124.264 626.337 124.264C617.648 124.264 610.312 125.494 604.329 127.953C598.345 130.33 593.755 133.649 590.558 137.912C587.444 142.174 585.886 147.01 585.886 152.42C585.722 156.928 586.665 160.862 588.714 164.223C590.845 167.583 593.755 170.493 597.443 172.952C601.132 175.329 605.394 177.419 610.23 179.223C615.066 180.944 620.23 182.419 625.722 183.649L648.345 189.059C659.328 191.518 669.41 194.796 678.59 198.895C687.77 202.993 695.721 208.034 702.442 214.017C709.164 220.001 714.369 227.05 718.057 235.165C721.828 243.28 723.754 252.583 723.836 263.074C723.754 278.484 719.819 291.845 712.033 303.156C704.328 314.385 693.18 323.115 678.59 329.344C664.082 335.492 646.582 338.566 626.091 338.566C605.763 338.566 588.058 335.451 572.976 329.221C557.977 322.992 546.255 313.771 537.813 301.558C529.452 289.263 525.067 274.058 524.657 255.943H576.173C576.747 264.386 579.165 271.435 583.427 277.091C587.771 282.664 593.55 286.886 600.763 289.754C608.058 292.541 616.296 293.935 625.476 293.935C634.492 293.935 642.32 292.623 648.959 290C655.681 287.377 660.885 283.73 664.574 279.058C668.262 274.386 670.107 269.017 670.107 262.951C670.107 257.296 668.426 252.542 665.066 248.689C661.787 244.837 656.951 241.558 650.558 238.853C644.246 236.148 636.5 233.689 627.32 231.476L599.902 224.591C578.673 219.427 561.911 211.354 549.616 200.37C537.321 189.387 531.214 174.592 531.296 155.985C531.214 140.739 535.272 127.42 543.468 116.027C551.747 104.633 563.099 95.7398 577.526 89.3465C591.952 82.9531 608.345 79.7564 626.705 79.7564C645.394 79.7564 661.705 82.9531 675.639 89.3465C689.656 95.7398 700.557 104.633 708.344 116.027C716.131 127.42 720.147 140.616 720.393 155.616H669.369ZM759.645 335V83.199H812.882V187.091H920.955V83.199H974.069V335H920.955V230.985H812.882V335H759.645Z" fill="white" fill-opacity="0.2"/>
<path d="M0 403.852H996.077V427.458H0V403.852Z" fill="white"/>
<path d="M0 403.852H996.077V427.458H0V403.852Z" fill="white" fill-opacity="0.2"/>
<path d="M1777.11 83.199H1711.46L1642.12 252.378H1639.17L1569.82 83.199H1504.17V335H1555.81V171.108H1557.9L1623.06 333.771H1658.22L1723.39 170.493H1725.48V335H1777.11V83.199ZM1460.3 335V83.199H1290.63V127.092H1407.07V187.091H1299.36V230.985H1407.07V291.107H1290.14V335H1460.3ZM1111.71 155.616C1112.69 145.698 1116.92 137.994 1124.37 132.502C1131.83 127.01 1141.96 124.264 1154.74 124.264C1163.43 124.264 1170.77 125.494 1176.75 127.953C1182.74 130.33 1187.33 133.649 1190.52 137.912C1193.64 142.174 1195.19 147.01 1195.19 152.42C1195.36 156.928 1194.42 160.862 1192.37 164.223C1190.23 167.583 1187.33 170.493 1183.64 172.952C1179.95 175.329 1175.69 177.419 1170.85 179.223C1166.01 180.944 1160.85 182.419 1155.36 183.649L1132.74 189.059C1121.75 191.518 1111.67 194.796 1102.49 198.895C1093.31 202.993 1085.36 208.034 1078.64 214.017C1071.92 220.001 1066.71 227.05 1063.02 235.165C1059.25 243.28 1057.33 252.583 1057.24 263.074C1057.33 278.484 1061.26 291.845 1069.05 303.156C1076.75 314.385 1087.9 323.115 1102.49 329.344C1117 335.492 1134.5 338.566 1154.99 338.566C1175.32 338.566 1193.02 335.451 1208.1 329.221C1223.1 322.992 1234.82 313.771 1243.27 301.558C1251.63 289.263 1256.01 274.058 1256.42 255.943H1204.91C1204.33 264.386 1201.92 271.435 1197.65 277.091C1193.31 282.664 1187.53 286.886 1180.32 289.754C1173.02 292.541 1164.78 293.935 1155.6 293.935C1146.59 293.935 1138.76 292.623 1132.12 290C1125.4 287.377 1120.19 283.73 1116.51 279.058C1112.82 274.386 1110.97 269.017 1110.97 262.951C1110.97 257.296 1112.65 252.542 1116.01 248.689C1119.29 244.837 1124.13 241.558 1130.52 238.853C1136.83 236.148 1144.58 233.689 1153.76 231.476L1181.18 224.591C1202.41 219.427 1219.17 211.354 1231.46 200.37C1243.76 189.387 1249.87 174.592 1249.78 155.985C1249.87 140.739 1245.81 127.42 1237.61 116.027C1229.33 104.633 1217.98 95.7398 1203.55 89.3465C1189.13 82.9531 1172.74 79.7564 1154.37 79.7564C1135.69 79.7564 1119.37 82.9531 1105.44 89.3465C1091.42 95.7398 1080.52 104.633 1072.74 116.027C1064.95 127.42 1060.93 140.616 1060.69 155.616H1111.71ZM1021.44 335V83.199H968.198V187.091H860.125V83.199H807.011V335H860.125V230.985H968.198V335H1021.44Z" fill="white"/>
<path d="M1777.11 83.199H1711.46L1642.12 252.378H1639.17L1569.82 83.199H1504.17V335H1555.81V171.108H1557.9L1623.06 333.771H1658.22L1723.39 170.493H1725.48V335H1777.11V83.199ZM1460.3 335V83.199H1290.63V127.092H1407.07V187.091H1299.36V230.985H1407.07V291.107H1290.14V335H1460.3ZM1111.71 155.616C1112.69 145.698 1116.92 137.994 1124.37 132.502C1131.83 127.01 1141.96 124.264 1154.74 124.264C1163.43 124.264 1170.77 125.494 1176.75 127.953C1182.74 130.33 1187.33 133.649 1190.52 137.912C1193.64 142.174 1195.19 147.01 1195.19 152.42C1195.36 156.928 1194.42 160.862 1192.37 164.223C1190.23 167.583 1187.33 170.493 1183.64 172.952C1179.95 175.329 1175.69 177.419 1170.85 179.223C1166.01 180.944 1160.85 182.419 1155.36 183.649L1132.74 189.059C1121.75 191.518 1111.67 194.796 1102.49 198.895C1093.31 202.993 1085.36 208.034 1078.64 214.017C1071.92 220.001 1066.71 227.05 1063.02 235.165C1059.25 243.28 1057.33 252.583 1057.24 263.074C1057.33 278.484 1061.26 291.845 1069.05 303.156C1076.75 314.385 1087.9 323.115 1102.49 329.344C1117 335.492 1134.5 338.566 1154.99 338.566C1175.32 338.566 1193.02 335.451 1208.1 329.221C1223.1 322.992 1234.82 313.771 1243.27 301.558C1251.63 289.263 1256.01 274.058 1256.42 255.943H1204.91C1204.33 264.386 1201.92 271.435 1197.65 277.091C1193.31 282.664 1187.53 286.886 1180.32 289.754C1173.02 292.541 1164.78 293.935 1155.6 293.935C1146.59 293.935 1138.76 292.623 1132.12 290C1125.4 287.377 1120.19 283.73 1116.51 279.058C1112.82 274.386 1110.97 269.017 1110.97 262.951C1110.97 257.296 1112.65 252.542 1116.01 248.689C1119.29 244.837 1124.13 241.558 1130.52 238.853C1136.83 236.148 1144.58 233.689 1153.76 231.476L1181.18 224.591C1202.41 219.427 1219.17 211.354 1231.46 200.37C1243.76 189.387 1249.87 174.592 1249.78 155.985C1249.87 140.739 1245.81 127.42 1237.61 116.027C1229.33 104.633 1217.98 95.7398 1203.55 89.3465C1189.13 82.9531 1172.74 79.7564 1154.37 79.7564C1135.69 79.7564 1119.37 82.9531 1105.44 89.3465C1091.42 95.7398 1080.52 104.633 1072.74 116.027C1064.95 127.42 1060.93 140.616 1060.69 155.616H1111.71ZM1021.44 335V83.199H968.198V187.091H860.125V83.199H807.011V335H860.125V230.985H968.198V335H1021.44Z" fill="white" fill-opacity="0.2"/>
<path d="M1799 403.852H785.003V427.458H1799V403.852Z" fill="white"/>
<path d="M1799 403.852H785.003V427.458H1799V403.852Z" fill="white" fill-opacity="0.2"/>
</svg>
